<mxfile host="app.diagrams.net" agent="Mozilla/5.0 (Windows NT 10.0; Win64; x64) AppleWebKit/537.36 (KHTML, like Gecko) Chrome/133.0.0.0 Safari/537.36" version="25.0.3">
  <diagram id="i2U2fAWp4BPeJd0J6tEC" name="Страница 1">
    <mxGraphModel dx="1434" dy="780" grid="1" gridSize="10" guides="1" tooltips="1" connect="1" arrows="1" fold="1" page="1" pageScale="1" pageWidth="1169" pageHeight="1654" math="0" shadow="0">
      <root>
        <mxCell id="0" />
        <mxCell id="1" parent="0" />
        <mxCell id="drja7BEQDBKc1mPBW_17-103" value="" style="endArrow=none;html=1;rounded=0;entryX=0.5;entryY=1;entryDx=0;entryDy=0;fontStyle=1" edge="1" parent="1" target="drja7BEQDBKc1mPBW_17-105">
          <mxGeometry width="50" height="50" relative="1" as="geometry">
            <mxPoint x="1123" y="1175" as="sourcePoint" />
            <mxPoint x="1123" y="935" as="targetPoint" />
          </mxGeometry>
        </mxCell>
        <mxCell id="drja7BEQDBKc1mPBW_17-23" value="" style="rounded=1;whiteSpace=wrap;html=1;fontStyle=1" vertex="1" parent="1">
          <mxGeometry x="280" y="1015" width="240" height="200" as="geometry" />
        </mxCell>
        <mxCell id="drja7BEQDBKc1mPBW_17-2" value="" style="rounded=0;whiteSpace=wrap;html=1;fontSize=17;fontStyle=1" vertex="1" parent="1">
          <mxGeometry x="300" y="1035" width="200" height="160" as="geometry" />
        </mxCell>
        <mxCell id="drja7BEQDBKc1mPBW_17-3" value="0" style="rounded=0;whiteSpace=wrap;html=1;fontSize=17;fontStyle=1" vertex="1" parent="1">
          <mxGeometry x="300" y="1035" width="40" height="40" as="geometry" />
        </mxCell>
        <mxCell id="drja7BEQDBKc1mPBW_17-4" value="1" style="rounded=0;whiteSpace=wrap;html=1;fontSize=17;fontStyle=1" vertex="1" parent="1">
          <mxGeometry x="340" y="1035" width="40" height="40" as="geometry" />
        </mxCell>
        <mxCell id="drja7BEQDBKc1mPBW_17-5" value="2" style="rounded=0;whiteSpace=wrap;html=1;fontSize=17;fontStyle=1" vertex="1" parent="1">
          <mxGeometry x="380" y="1035" width="40" height="40" as="geometry" />
        </mxCell>
        <mxCell id="drja7BEQDBKc1mPBW_17-6" value="3" style="rounded=0;whiteSpace=wrap;html=1;fontSize=17;fontStyle=1" vertex="1" parent="1">
          <mxGeometry x="420" y="1035" width="40" height="40" as="geometry" />
        </mxCell>
        <mxCell id="drja7BEQDBKc1mPBW_17-7" value="4" style="rounded=0;whiteSpace=wrap;html=1;fontSize=17;fontStyle=1" vertex="1" parent="1">
          <mxGeometry x="460" y="1035" width="40" height="40" as="geometry" />
        </mxCell>
        <mxCell id="drja7BEQDBKc1mPBW_17-8" value="5" style="rounded=0;whiteSpace=wrap;html=1;fontSize=17;fontStyle=1" vertex="1" parent="1">
          <mxGeometry x="300" y="1075" width="40" height="40" as="geometry" />
        </mxCell>
        <mxCell id="drja7BEQDBKc1mPBW_17-9" value="6" style="rounded=0;whiteSpace=wrap;html=1;fontSize=17;fontStyle=1" vertex="1" parent="1">
          <mxGeometry x="340" y="1075" width="40" height="40" as="geometry" />
        </mxCell>
        <mxCell id="drja7BEQDBKc1mPBW_17-10" value="7" style="rounded=0;whiteSpace=wrap;html=1;fontSize=17;fontStyle=1" vertex="1" parent="1">
          <mxGeometry x="380" y="1075" width="40" height="40" as="geometry" />
        </mxCell>
        <mxCell id="drja7BEQDBKc1mPBW_17-11" value="8" style="rounded=0;whiteSpace=wrap;html=1;fontSize=17;fontStyle=1" vertex="1" parent="1">
          <mxGeometry x="420" y="1075" width="40" height="40" as="geometry" />
        </mxCell>
        <mxCell id="drja7BEQDBKc1mPBW_17-12" value="9" style="rounded=0;whiteSpace=wrap;html=1;fontSize=17;fontStyle=1" vertex="1" parent="1">
          <mxGeometry x="460" y="1075" width="40" height="40" as="geometry" />
        </mxCell>
        <mxCell id="drja7BEQDBKc1mPBW_17-13" value="10" style="rounded=0;whiteSpace=wrap;html=1;fontSize=17;fontStyle=1" vertex="1" parent="1">
          <mxGeometry x="300" y="1115" width="40" height="40" as="geometry" />
        </mxCell>
        <mxCell id="drja7BEQDBKc1mPBW_17-14" value="11" style="rounded=0;whiteSpace=wrap;html=1;fontSize=17;fontStyle=1" vertex="1" parent="1">
          <mxGeometry x="340" y="1115" width="40" height="40" as="geometry" />
        </mxCell>
        <mxCell id="drja7BEQDBKc1mPBW_17-15" value="12" style="rounded=0;whiteSpace=wrap;html=1;fontSize=17;fontStyle=1" vertex="1" parent="1">
          <mxGeometry x="380" y="1115" width="40" height="40" as="geometry" />
        </mxCell>
        <mxCell id="drja7BEQDBKc1mPBW_17-16" value="13" style="rounded=0;whiteSpace=wrap;html=1;fontSize=17;fontStyle=1" vertex="1" parent="1">
          <mxGeometry x="420" y="1115" width="40" height="40" as="geometry" />
        </mxCell>
        <mxCell id="drja7BEQDBKc1mPBW_17-17" value="14" style="rounded=0;whiteSpace=wrap;html=1;fontSize=17;fontStyle=1" vertex="1" parent="1">
          <mxGeometry x="460" y="1115" width="40" height="40" as="geometry" />
        </mxCell>
        <mxCell id="drja7BEQDBKc1mPBW_17-18" value="15" style="rounded=0;whiteSpace=wrap;html=1;fontSize=17;fontStyle=1" vertex="1" parent="1">
          <mxGeometry x="300" y="1155" width="40" height="40" as="geometry" />
        </mxCell>
        <mxCell id="drja7BEQDBKc1mPBW_17-19" value="16" style="rounded=0;whiteSpace=wrap;html=1;fontSize=17;fontStyle=1" vertex="1" parent="1">
          <mxGeometry x="340" y="1155" width="40" height="40" as="geometry" />
        </mxCell>
        <mxCell id="drja7BEQDBKc1mPBW_17-20" value="17" style="rounded=0;whiteSpace=wrap;html=1;fontSize=17;fontStyle=1" vertex="1" parent="1">
          <mxGeometry x="380" y="1155" width="40" height="40" as="geometry" />
        </mxCell>
        <mxCell id="drja7BEQDBKc1mPBW_17-21" value="18" style="rounded=0;whiteSpace=wrap;html=1;fontSize=17;fontStyle=1" vertex="1" parent="1">
          <mxGeometry x="420" y="1155" width="40" height="40" as="geometry" />
        </mxCell>
        <mxCell id="drja7BEQDBKc1mPBW_17-22" value="19" style="rounded=0;whiteSpace=wrap;html=1;fontSize=17;fontStyle=1" vertex="1" parent="1">
          <mxGeometry x="460" y="1155" width="40" height="40" as="geometry" />
        </mxCell>
        <mxCell id="drja7BEQDBKc1mPBW_17-45" value="" style="rounded=1;whiteSpace=wrap;html=1;fontStyle=1" vertex="1" parent="1">
          <mxGeometry x="640" y="1015" width="240" height="200" as="geometry" />
        </mxCell>
        <mxCell id="drja7BEQDBKc1mPBW_17-46" value="" style="rounded=0;whiteSpace=wrap;html=1;fontSize=17;fontStyle=1" vertex="1" parent="1">
          <mxGeometry x="660" y="1035" width="200" height="160" as="geometry" />
        </mxCell>
        <mxCell id="drja7BEQDBKc1mPBW_17-47" value="0" style="rounded=0;whiteSpace=wrap;html=1;fontSize=17;fontStyle=1" vertex="1" parent="1">
          <mxGeometry x="660" y="1035" width="40" height="40" as="geometry" />
        </mxCell>
        <mxCell id="drja7BEQDBKc1mPBW_17-48" value="1" style="rounded=0;whiteSpace=wrap;html=1;fontSize=17;fontStyle=1" vertex="1" parent="1">
          <mxGeometry x="700" y="1035" width="40" height="40" as="geometry" />
        </mxCell>
        <mxCell id="drja7BEQDBKc1mPBW_17-49" value="2" style="rounded=0;whiteSpace=wrap;html=1;fontSize=17;fontStyle=1" vertex="1" parent="1">
          <mxGeometry x="740" y="1035" width="40" height="40" as="geometry" />
        </mxCell>
        <mxCell id="drja7BEQDBKc1mPBW_17-50" value="3" style="rounded=0;whiteSpace=wrap;html=1;fontSize=17;fontStyle=1" vertex="1" parent="1">
          <mxGeometry x="780" y="1035" width="40" height="40" as="geometry" />
        </mxCell>
        <mxCell id="drja7BEQDBKc1mPBW_17-51" value="4" style="rounded=0;whiteSpace=wrap;html=1;fontSize=17;fontStyle=1" vertex="1" parent="1">
          <mxGeometry x="820" y="1035" width="40" height="40" as="geometry" />
        </mxCell>
        <mxCell id="drja7BEQDBKc1mPBW_17-52" value="5" style="rounded=0;whiteSpace=wrap;html=1;fontSize=17;fontStyle=1" vertex="1" parent="1">
          <mxGeometry x="660" y="1075" width="40" height="40" as="geometry" />
        </mxCell>
        <mxCell id="drja7BEQDBKc1mPBW_17-53" value="6" style="rounded=0;whiteSpace=wrap;html=1;fontSize=17;fontStyle=1" vertex="1" parent="1">
          <mxGeometry x="700" y="1075" width="40" height="40" as="geometry" />
        </mxCell>
        <mxCell id="drja7BEQDBKc1mPBW_17-54" value="7" style="rounded=0;whiteSpace=wrap;html=1;fontSize=17;fontStyle=1" vertex="1" parent="1">
          <mxGeometry x="740" y="1075" width="40" height="40" as="geometry" />
        </mxCell>
        <mxCell id="drja7BEQDBKc1mPBW_17-55" value="8" style="rounded=0;whiteSpace=wrap;html=1;fontSize=17;fontStyle=1" vertex="1" parent="1">
          <mxGeometry x="780" y="1075" width="40" height="40" as="geometry" />
        </mxCell>
        <mxCell id="drja7BEQDBKc1mPBW_17-56" value="9" style="rounded=0;whiteSpace=wrap;html=1;fontSize=17;fontStyle=1" vertex="1" parent="1">
          <mxGeometry x="820" y="1075" width="40" height="40" as="geometry" />
        </mxCell>
        <mxCell id="drja7BEQDBKc1mPBW_17-57" value="10" style="rounded=0;whiteSpace=wrap;html=1;fontSize=17;fontStyle=1" vertex="1" parent="1">
          <mxGeometry x="660" y="1115" width="40" height="40" as="geometry" />
        </mxCell>
        <mxCell id="drja7BEQDBKc1mPBW_17-58" value="11" style="rounded=0;whiteSpace=wrap;html=1;fontSize=17;fontStyle=1" vertex="1" parent="1">
          <mxGeometry x="700" y="1115" width="40" height="40" as="geometry" />
        </mxCell>
        <mxCell id="drja7BEQDBKc1mPBW_17-59" value="12" style="rounded=0;whiteSpace=wrap;html=1;fontSize=17;fontStyle=1" vertex="1" parent="1">
          <mxGeometry x="740" y="1115" width="40" height="40" as="geometry" />
        </mxCell>
        <mxCell id="drja7BEQDBKc1mPBW_17-60" value="13" style="rounded=0;whiteSpace=wrap;html=1;fontSize=17;fontStyle=1" vertex="1" parent="1">
          <mxGeometry x="780" y="1115" width="40" height="40" as="geometry" />
        </mxCell>
        <mxCell id="drja7BEQDBKc1mPBW_17-61" value="14" style="rounded=0;whiteSpace=wrap;html=1;fontSize=17;fontStyle=1" vertex="1" parent="1">
          <mxGeometry x="820" y="1115" width="40" height="40" as="geometry" />
        </mxCell>
        <mxCell id="drja7BEQDBKc1mPBW_17-62" value="15" style="rounded=0;whiteSpace=wrap;html=1;fontSize=17;fontStyle=1" vertex="1" parent="1">
          <mxGeometry x="660" y="1155" width="40" height="40" as="geometry" />
        </mxCell>
        <mxCell id="drja7BEQDBKc1mPBW_17-63" value="16" style="rounded=0;whiteSpace=wrap;html=1;fontSize=17;fontStyle=1" vertex="1" parent="1">
          <mxGeometry x="700" y="1155" width="40" height="40" as="geometry" />
        </mxCell>
        <mxCell id="drja7BEQDBKc1mPBW_17-64" value="17" style="rounded=0;whiteSpace=wrap;html=1;fontSize=17;fontStyle=1" vertex="1" parent="1">
          <mxGeometry x="740" y="1155" width="40" height="40" as="geometry" />
        </mxCell>
        <mxCell id="drja7BEQDBKc1mPBW_17-65" value="18" style="rounded=0;whiteSpace=wrap;html=1;fontSize=17;fontStyle=1" vertex="1" parent="1">
          <mxGeometry x="780" y="1155" width="40" height="40" as="geometry" />
        </mxCell>
        <mxCell id="drja7BEQDBKc1mPBW_17-66" value="19" style="rounded=0;whiteSpace=wrap;html=1;fontSize=17;fontStyle=1" vertex="1" parent="1">
          <mxGeometry x="820" y="1155" width="40" height="40" as="geometry" />
        </mxCell>
        <mxCell id="drja7BEQDBKc1mPBW_17-67" value="Блоки данных" style="text;html=1;align=left;verticalAlign=middle;whiteSpace=wrap;rounded=0;fontSize=18;fontStyle=1" vertex="1" parent="1">
          <mxGeometry x="890" y="1100" width="60" height="30" as="geometry" />
        </mxCell>
        <mxCell id="drja7BEQDBKc1mPBW_17-68" value="Блоки данных" style="text;html=1;align=left;verticalAlign=middle;whiteSpace=wrap;rounded=0;fontSize=18;fontStyle=1" vertex="1" parent="1">
          <mxGeometry x="530" y="1100" width="60" height="30" as="geometry" />
        </mxCell>
        <mxCell id="drja7BEQDBKc1mPBW_17-69" value="" style="endArrow=none;html=1;rounded=0;fontStyle=1" edge="1" parent="1">
          <mxGeometry width="50" height="50" relative="1" as="geometry">
            <mxPoint x="759.8" y="975" as="sourcePoint" />
            <mxPoint x="760" y="955" as="targetPoint" />
          </mxGeometry>
        </mxCell>
        <mxCell id="drja7BEQDBKc1mPBW_17-70" value="" style="endArrow=none;html=1;rounded=0;fontStyle=1" edge="1" parent="1">
          <mxGeometry width="50" height="50" relative="1" as="geometry">
            <mxPoint x="720" y="975" as="sourcePoint" />
            <mxPoint x="800" y="975" as="targetPoint" />
            <Array as="points">
              <mxPoint x="760" y="975" />
            </Array>
          </mxGeometry>
        </mxCell>
        <mxCell id="drja7BEQDBKc1mPBW_17-71" value="" style="endArrow=none;html=1;rounded=0;fontStyle=1" edge="1" parent="1">
          <mxGeometry width="50" height="50" relative="1" as="geometry">
            <mxPoint x="720" y="995" as="sourcePoint" />
            <mxPoint x="720" y="975" as="targetPoint" />
          </mxGeometry>
        </mxCell>
        <mxCell id="drja7BEQDBKc1mPBW_17-72" value="" style="endArrow=none;html=1;rounded=0;fontStyle=1" edge="1" parent="1">
          <mxGeometry width="50" height="50" relative="1" as="geometry">
            <mxPoint x="680" y="995" as="sourcePoint" />
            <mxPoint x="760" y="995" as="targetPoint" />
          </mxGeometry>
        </mxCell>
        <mxCell id="drja7BEQDBKc1mPBW_17-73" value="" style="endArrow=none;html=1;rounded=0;exitX=0.333;exitY=-0.001;exitDx=0;exitDy=0;exitPerimeter=0;fontStyle=1" edge="1" parent="1">
          <mxGeometry width="50" height="50" relative="1" as="geometry">
            <mxPoint x="719.92" y="1015" as="sourcePoint" />
            <mxPoint x="720" y="995" as="targetPoint" />
          </mxGeometry>
        </mxCell>
        <mxCell id="drja7BEQDBKc1mPBW_17-75" value="" style="endArrow=none;html=1;rounded=0;fontStyle=1" edge="1" parent="1">
          <mxGeometry width="50" height="50" relative="1" as="geometry">
            <mxPoint x="679.92" y="1015" as="sourcePoint" />
            <mxPoint x="680" y="995" as="targetPoint" />
          </mxGeometry>
        </mxCell>
        <mxCell id="drja7BEQDBKc1mPBW_17-76" value="" style="endArrow=none;html=1;rounded=0;fontStyle=1" edge="1" parent="1">
          <mxGeometry width="50" height="50" relative="1" as="geometry">
            <mxPoint x="759.92" y="1015" as="sourcePoint" />
            <mxPoint x="760" y="995" as="targetPoint" />
          </mxGeometry>
        </mxCell>
        <mxCell id="drja7BEQDBKc1mPBW_17-77" value="" style="endArrow=none;html=1;rounded=0;fontStyle=1" edge="1" parent="1" source="drja7BEQDBKc1mPBW_17-85">
          <mxGeometry width="50" height="50" relative="1" as="geometry">
            <mxPoint x="799.66" y="1035" as="sourcePoint" />
            <mxPoint x="800" y="975" as="targetPoint" />
          </mxGeometry>
        </mxCell>
        <mxCell id="drja7BEQDBKc1mPBW_17-78" value="" style="endArrow=none;html=1;rounded=0;fontStyle=1" edge="1" parent="1">
          <mxGeometry width="50" height="50" relative="1" as="geometry">
            <mxPoint x="800" y="995" as="sourcePoint" />
            <mxPoint x="840" y="995" as="targetPoint" />
          </mxGeometry>
        </mxCell>
        <mxCell id="drja7BEQDBKc1mPBW_17-79" value="" style="endArrow=none;html=1;rounded=0;fontStyle=1" edge="1" parent="1">
          <mxGeometry width="50" height="50" relative="1" as="geometry">
            <mxPoint x="839.66" y="1015" as="sourcePoint" />
            <mxPoint x="840" y="995" as="targetPoint" />
          </mxGeometry>
        </mxCell>
        <mxCell id="drja7BEQDBKc1mPBW_17-83" value="" style="ellipse;whiteSpace=wrap;html=1;aspect=fixed;fontStyle=1" vertex="1" parent="1">
          <mxGeometry x="755" y="970" width="10" height="10" as="geometry" />
        </mxCell>
        <mxCell id="drja7BEQDBKc1mPBW_17-84" value="" style="ellipse;whiteSpace=wrap;html=1;aspect=fixed;fontStyle=1" vertex="1" parent="1">
          <mxGeometry x="715" y="990" width="10" height="10" as="geometry" />
        </mxCell>
        <mxCell id="drja7BEQDBKc1mPBW_17-87" value="" style="endArrow=none;html=1;rounded=0;fontStyle=1" edge="1" parent="1">
          <mxGeometry width="50" height="50" relative="1" as="geometry">
            <mxPoint x="799.66" y="1015" as="sourcePoint" />
            <mxPoint x="800" y="995" as="targetPoint" />
          </mxGeometry>
        </mxCell>
        <mxCell id="drja7BEQDBKc1mPBW_17-85" value="" style="ellipse;whiteSpace=wrap;html=1;aspect=fixed;fontStyle=1" vertex="1" parent="1">
          <mxGeometry x="795" y="990" width="10" height="10" as="geometry" />
        </mxCell>
        <mxCell id="drja7BEQDBKc1mPBW_17-90" value="Файловая система хранения" style="text;html=1;align=left;verticalAlign=middle;whiteSpace=wrap;rounded=0;fontSize=17;fontStyle=1" vertex="1" parent="1">
          <mxGeometry x="860" y="960" width="80" height="30" as="geometry" />
        </mxCell>
        <mxCell id="drja7BEQDBKc1mPBW_17-91" value="Object" style="rounded=1;whiteSpace=wrap;html=1;fontSize=16;fontStyle=1" vertex="1" parent="1">
          <mxGeometry x="1040" y="1090" width="80" height="40" as="geometry" />
        </mxCell>
        <mxCell id="drja7BEQDBKc1mPBW_17-92" value="Object" style="rounded=1;whiteSpace=wrap;html=1;fontSize=16;fontStyle=1" vertex="1" parent="1">
          <mxGeometry x="1155" y="1115" width="80" height="40" as="geometry" />
        </mxCell>
        <mxCell id="drja7BEQDBKc1mPBW_17-93" value="Object" style="rounded=1;whiteSpace=wrap;html=1;fontSize=16;fontStyle=1" vertex="1" parent="1">
          <mxGeometry x="1200" y="1025" width="80" height="40" as="geometry" />
        </mxCell>
        <mxCell id="drja7BEQDBKc1mPBW_17-94" value="Object" style="rounded=1;whiteSpace=wrap;html=1;fontSize=16;fontStyle=1" vertex="1" parent="1">
          <mxGeometry x="1083" y="1175" width="80" height="40" as="geometry" />
        </mxCell>
        <mxCell id="drja7BEQDBKc1mPBW_17-95" value="Object" style="rounded=1;whiteSpace=wrap;html=1;fontSize=16;fontStyle=1" vertex="1" parent="1">
          <mxGeometry x="1100" y="1015" width="80" height="40" as="geometry" />
        </mxCell>
        <mxCell id="drja7BEQDBKc1mPBW_17-96" value="" style="endArrow=none;html=1;rounded=0;exitX=0.5;exitY=0;exitDx=0;exitDy=0;entryX=0.5;entryY=1;entryDx=0;entryDy=0;fontStyle=1" edge="1" parent="1" source="drja7BEQDBKc1mPBW_17-91" target="drja7BEQDBKc1mPBW_17-104">
          <mxGeometry width="50" height="50" relative="1" as="geometry">
            <mxPoint x="1050" y="955" as="sourcePoint" />
            <mxPoint x="1080" y="935" as="targetPoint" />
          </mxGeometry>
        </mxCell>
        <mxCell id="drja7BEQDBKc1mPBW_17-100" value="" style="endArrow=none;html=1;rounded=0;exitX=0.5;exitY=0;exitDx=0;exitDy=0;entryX=0.5;entryY=1;entryDx=0;entryDy=0;fontStyle=1" edge="1" parent="1" source="drja7BEQDBKc1mPBW_17-95" target="drja7BEQDBKc1mPBW_17-106">
          <mxGeometry width="50" height="50" relative="1" as="geometry">
            <mxPoint x="1128.89" y="1015" as="sourcePoint" />
            <mxPoint x="1140" y="935" as="targetPoint" />
          </mxGeometry>
        </mxCell>
        <mxCell id="drja7BEQDBKc1mPBW_17-101" value="" style="endArrow=none;html=1;rounded=0;exitX=0.5;exitY=0;exitDx=0;exitDy=0;entryX=0.5;entryY=1;entryDx=0;entryDy=0;fontStyle=1" edge="1" parent="1" source="drja7BEQDBKc1mPBW_17-93" target="drja7BEQDBKc1mPBW_17-109">
          <mxGeometry width="50" height="50" relative="1" as="geometry">
            <mxPoint x="1240" y="1025" as="sourcePoint" />
            <mxPoint x="1240" y="935" as="targetPoint" />
          </mxGeometry>
        </mxCell>
        <mxCell id="drja7BEQDBKc1mPBW_17-102" value="" style="endArrow=none;html=1;rounded=0;exitX=0.5;exitY=0;exitDx=0;exitDy=0;fontStyle=1" edge="1" parent="1" source="drja7BEQDBKc1mPBW_17-107">
          <mxGeometry width="50" height="50" relative="1" as="geometry">
            <mxPoint x="1194.6" y="1145" as="sourcePoint" />
            <mxPoint x="1195" y="965" as="targetPoint" />
          </mxGeometry>
        </mxCell>
        <mxCell id="drja7BEQDBKc1mPBW_17-104" value="" style="ellipse;whiteSpace=wrap;html=1;aspect=fixed;fontStyle=1" vertex="1" parent="1">
          <mxGeometry x="1075" y="960" width="10" height="10" as="geometry" />
        </mxCell>
        <mxCell id="drja7BEQDBKc1mPBW_17-105" value="" style="ellipse;whiteSpace=wrap;html=1;aspect=fixed;fontStyle=1" vertex="1" parent="1">
          <mxGeometry x="1118" y="960" width="10" height="10" as="geometry" />
        </mxCell>
        <mxCell id="drja7BEQDBKc1mPBW_17-106" value="" style="ellipse;whiteSpace=wrap;html=1;aspect=fixed;fontStyle=1" vertex="1" parent="1">
          <mxGeometry x="1135" y="960" width="10" height="10" as="geometry" />
        </mxCell>
        <mxCell id="drja7BEQDBKc1mPBW_17-108" value="" style="endArrow=none;html=1;rounded=0;exitX=0.5;exitY=0;exitDx=0;exitDy=0;fontStyle=1" edge="1" parent="1" target="drja7BEQDBKc1mPBW_17-107">
          <mxGeometry width="50" height="50" relative="1" as="geometry">
            <mxPoint x="1194.6" y="1115" as="sourcePoint" />
            <mxPoint x="1195" y="935" as="targetPoint" />
          </mxGeometry>
        </mxCell>
        <mxCell id="drja7BEQDBKc1mPBW_17-107" value="" style="ellipse;whiteSpace=wrap;html=1;aspect=fixed;fontStyle=1" vertex="1" parent="1">
          <mxGeometry x="1190" y="960" width="10" height="10" as="geometry" />
        </mxCell>
        <mxCell id="drja7BEQDBKc1mPBW_17-109" value="" style="ellipse;whiteSpace=wrap;html=1;aspect=fixed;fontStyle=1" vertex="1" parent="1">
          <mxGeometry x="1235" y="960" width="10" height="10" as="geometry" />
        </mxCell>
        <mxCell id="drja7BEQDBKc1mPBW_17-110" value="Блочные" style="text;html=1;align=center;verticalAlign=middle;whiteSpace=wrap;rounded=0;fontSize=26;fontStyle=1" vertex="1" parent="1">
          <mxGeometry x="370" y="880" width="60" height="30" as="geometry" />
        </mxCell>
        <mxCell id="drja7BEQDBKc1mPBW_17-111" value="Файловые" style="text;html=1;align=center;verticalAlign=middle;whiteSpace=wrap;rounded=0;fontSize=26;fontStyle=1" vertex="1" parent="1">
          <mxGeometry x="730" y="880" width="60" height="30" as="geometry" />
        </mxCell>
        <mxCell id="drja7BEQDBKc1mPBW_17-112" value="Объектные" style="text;html=1;align=center;verticalAlign=middle;whiteSpace=wrap;rounded=0;fontSize=26;fontStyle=1" vertex="1" parent="1">
          <mxGeometry x="1130" y="880" width="60" height="30" as="geometry" />
        </mxCell>
        <mxCell id="drja7BEQDBKc1mPBW_17-113" value="Объекты" style="text;html=1;align=left;verticalAlign=middle;whiteSpace=wrap;rounded=0;fontSize=19;fontStyle=1" vertex="1" parent="1">
          <mxGeometry x="1290" y="1100" width="60" height="30" as="geometry" />
        </mxCell>
      </root>
    </mxGraphModel>
  </diagram>
</mxfile>
